PathFileType	4	(X/Y/Z)	C:/Users/beibeiliu/ov580/test_trc/User1\sequence.11_training_dense_right.trc
DataRate	CameraRate	NumFrames	NumMarkers	Units	OrigDataRate	OrigDataStartFrame	OrigNumFrames
120	120	21	19	mm	120	27	52
Frame#	Time	ThumbCMC			ThumbMCP			ThumbIP			ThumbTip			IndexMCP			IndexPIP			IndexTip			MiddleMCP			MiddlePIP			MiddleTip			RingMCP			RingPIP			RingTip			PinkyMCP			PinkyPIP			PinkyTip			BackHand1			BackHand2			BackHand3	
		X0	Y0	Z0	X1	Y1	Z1	X2	Y2	Z2	X3	Y3	Z3	X4	Y4	Z4	X5	Y5	Z5	X6	Y6	Z6	X7	Y7	Z7	X8	Y8	Z8	X9	Y9	Z9	X10	Y10	Z10	X11	Y11	Z11	X12	Y12	Z12	X13	Y13	Z13	X14	Y14	Z14	X15	Y15	Z15	X16	Y16	Z16	X17	Y17	Z17	X18	Y18	Z18	
26	0.216667	118.495	74.012	114.429	90.4971	49.2265	104.445	79.1748	27.0388	87.8766	86.675	-0.162618	73.6457	107.695	69.1199	36.7381	99.4797	61.3527	13.3767	86.4018	56.7259	-10.8677	129.366	42.2215	25.1123	118.393	24.9436	0.639229	110.213	9.61622	-20.0054	122.917	13.0729	38.7627	99.9148	-0.788829	58.9112	111.661	11.9308	88.6126	137.552	-4.84466	65.9703	114.978	-0.472281	84.098	118.819	22.2752	103.343	166.483	47.3418	74.5062	184.961	55.632	103.684	155.673	80.4935	92.6949	
27	0.225	135.825	92.1936	107.667	94.5893	84.4825	101.14	72.336	64.3456	83.1278	62.4018	39.4855	78.5282	118.009	77.562	26.2429	106.36	77.0358	5.57178	92.7979	74.5604	-19.1354	117.918	43.5473	20.7737	99.7686	32.1583	0.769116	77.9445	23.8672	-20.6914	101.489	23.9211	44.3217	74.3206	31.092	65.6184	95.9094	37.6379	92.6721	104.966	8.37011	68.217	87.6212	19.1998	90.7158	108.74	45.3474	104.426	156.748	33.8296	67.9591	182.319	39.7984	98.2592	164.541	70.4944	78.954	
28	0.233333	151.756	93.2315	95.6018	111.881	103.325	85.9571	87.7475	95.3019	74.9299	64.6103	77.5682	68.4901	135.286	82.625	15.0666	126.075	83.6061	-4.8006	113.145	82.8265	-32.332	116.786	48.8065	14.2179	98.2921	47.5747	-4.37542	74.6839	42.7764	-25.5526	90.0496	45.7258	40.4773	70.7142	61.4231	61.751	92.6043	65.091	86.513	89.706	30.8068	64.4812	80.153	51.4655	83.8154	104.171	60.9297	102.001	149.104	30.0871	67.1749	170.048	24.8415	97.4521	170.318	61.8258	72.9226	
29	0.241667	162.637	86.6665	94.8223	128.307	104.246	78.1357	102.85	103.152	57.0612	81.6593	84.373	47.2092	156.526	71.4186	10.5879	153.968	73.4908	-10.0119	148.156	72.7199	-35.16	133.595	41.9288	8.37181	117.123	42.3801	-14.5929	100.171	44.6741	-40.5753	104.277	45.9551	30.6821	84.7861	70.8863	45.4783	103.491	73.3536	73.7425	96.7032	35.2954	53.1875	86.3424	60.1091	69.835	107.996	65.5019	91.3644	150.098	24.0306	67.2323	164.564	16.9611	101.702	178.342	52.4748	80.1203	
30	0.25	169.772	79.1695	89.887	142.259	89.9498	61.0082	126.618	84.7246	37.8792	110.203	69.5845	22.0803	196.427	55.8169	18.8792	198.707	49.9078	-8.52827	199.683	48.8694	-33.2279	177.891	21.0378	12.0978	172.95	15.421	-19.2909	159.008	15.3979	-47.8118	137.334	26.3783	16.8949	115.12	51.5773	19.3007	119.326	56.9947	55.17	123.84	19.9045	38.1132	110.965	44.7534	44.7977	121.943	55.1232	70.4796	167.321	11.7717	72.9441	170.322	12.8408	106.929	190.459	41.8142	88.9843	
31	0.258333	167.567	73.2827	88.5194	145.92	73.0465	49.9955	138.767	63.0757	25.9846	129.851	43.0321	5.79955	214.224	52.1916	27.7258	226.553	51.3458	-0.522034	229.638	46.7055	-27.9221	214.131	16.9609	21.6293	218.993	8.60698	-7.44243	214.328	6.36554	-42.7984	171.842	11.4521	14.2312	142.4	25.0821	8.85961	135.922	38.9026	36.6868	153.88	-1.72198	33.8499	134.261	19.1463	31.6571	137.588	37.3175	58.0934	189.705	10.3268	76.6906	185.63	13.436	113.82	197.361	41.551	93.7423	
32	0.266667	149.995	68.3478	90.3791	136.292	57.3678	47.6239	138.635	45.6413	20.319	144.67	23.5996	3.37289	205.577	73.8081	29.797	216.767	79.9883	-0.607061	220.443	76.0677	-24.3571	221.75	45.4632	26.7835	234.563	44.4251	-4.98403	236.639	33.8416	-36.4041	196.598	18.0679	16.5781	165.74	15.3202	3.84651	149.878	18.3716	35.4347	185.661	-2.37279	33.8585	155.095	0.119527	28.5168	149.396	20.4278	56.6776	206.521	22.2147	80.29	197.669	19.52	112.433	195.251	55.2613	92.726	
33	0.275	130.568	42.4838	90.2402	123.842	22.8548	53.8013	135.015	14.0747	26.2876	156.598	2.67643	5.80024	162.639	84.1234	23.1024	168.82	89.0288	-0.971149	177.264	87.7166	-27.1649	198.779	70.3174	26.7702	208.513	78.4578	-3.61989	216.265	75.7215	-33.0641	199.777	34.0988	16.0978	181.107	10.1047	6.56928	167.526	2.41911	34.9487	204.051	11.9653	35.486	180.298	-5.17574	32.3106	158.948	2.41082	60.9887	200.818	51.1352	81.7805	194.512	45.6451	112.712	165.015	65.5407	95.8408	
34	0.283333	123.263	27.4442	91.6734	121.266	0.63157	58.3907	136.458	-7.85533	38.6638	159.64	-18.7717	18.2495	143.459	59.9309	19.4087	140.087	64.6482	-9.36601	146.892	64.7404	-30.9714	175.835	64.4434	17.1771	185.676	66.2861	-7.33198	198.263	63.7851	-38.8961	190.263	29.0363	20.378	183.458	-1.12569	14.3686	165.927	-6.84505	46.6008	202.015	11.3232	42.7205	185.316	-12.5962	44.7739	162.116	-6.15909	66.9461	187.343	51.9982	82.0162	181.08	51.932	115.579	149.271	59.6522	90.6337	
35	0.291667	114.866	33.9977	102.392	105.411	2.71873	70.7123	114.086	-14.6023	50.2001	136.901	-27.7789	38.7055	128.597	47.221	16.9353	131.424	41.6325	-4.86504	130.437	39.6603	-29.5162	167.494	41.3402	13.3518	173.33	35.4293	-11.9298	182.942	25.3719	-38.2232	176.045	5.98767	27.0303	155.702	-22.5443	30.2686	149.424	-14.9666	64.6222	182.617	-9.37598	49.46	163.536	-23.9019	58.0915	145.988	-7.45193	81.9825	178.54	46.2136	78.1242	178.843	51.7194	115.009	148.813	59.558	90.3292	
36	0.3	117.871	57.3239	99.1892	90.2876	33.3225	83.1099	86.7033	7.91486	59.4789	95.4221	-17.1683	53.3889	126.911	42.6511	17.4554	119.164	38.2365	-4.84212	117.802	26.465	-26.6246	147.086	20.0024	12.0129	144.976	5.40023	-8.7169	142.111	-8.8083	-36.8736	139.401	-10.1747	34.0605	111.032	-22.4306	49.9165	117.166	-3.85517	76.9846	147.467	-23.5984	61.0793	119.06	-21.2254	78.7576	119.102	4.11703	91.6275	172.592	26.8934	74.1114	181.779	39.4375	102.519	157.642	59.1873	86.3666	
37	0.308333	139.469	72.7903	94.7873	98.7245	70.1105	79.6989	78.0302	48.22	61.2029	70.5221	21.2132	59.228	130.694	46.6602	14.5611	121.93	40.4361	-8.2887	112.005	36.8428	-32.4322	132.612	11.7256	12.4525	119.571	-1.9756	-7.06711	105.364	-16.2004	-30.0638	108.866	-1.98067	37.5676	79.9781	9.09998	56.3243	95.6479	24.465	78.9049	108.085	-13.4738	66.0272	90.9895	6.52455	82.5354	111.74	28.6057	93.3576	163.935	11.5217	71.3326	180.313	16.9545	97.4576	168.162	47.8077	72.8917	
38	0.316667	158.922	78.2965	89.4027	119.621	89.8886	74.792	92.2422	79.4397	57.7884	72.2621	62.8948	56.2042	141.714	54.2584	6.63448	134.038	54.3385	-16.5336	121.617	50.6134	-39.7542	129.426	18.5455	11.9209	114.676	14.5242	-11.7548	94.6578	6.5713	-36.4533	98.4563	22.0217	31.7915	75.2255	38.1684	45.6517	92.8124	53.0281	72.2073	97.0254	9.59738	59.7702	82.7379	31.5794	73.4509	108.628	46.43	87.2773	154.025	11.9109	69.4536	172.769	12.9188	94.675	175.941	40.5552	69.9647	
39	0.325	170.591	82.029	89.6578	133.362	95.6447	69.4705	109.375	90.6458	53.5699	86.2454	82.7286	48.2761	160.367	63.2034	11.0835	155.685	64.9905	-15.3317	146.682	65.1806	-41.4351	140.595	31.2054	3.92742	124.325	27.1217	-20.2564	104.964	24.8144	-44.0183	105.06	34.2541	23.6958	85.7344	58.6682	32.9169	99.162	69.1789	63.2203	100.699	26.4904	48.2491	88.696	50.7549	62.4376	115.139	56.4403	81.99	152.739	12.8565	66.6945	168.564	9.48676	98.1739	182.464	39.9842	70.7794	
40	0.333333	176.377	76.9321	87.7474	143.955	92.6403	67.4148	122.23	92.0924	46.408	101.002	81.0678	33.8722	179.131	56.6956	10.8294	174.906	55.9305	-15.6536	170.29	56.41	-45.0138	155.753	24.5637	5.77946	147.227	25.2967	-20.3781	131.315	23.2725	-49.8596	122.423	28.7166	19.4577	100.874	55.9054	19.4479	103.929	67.6581	50.4125	107.434	22.2283	41.9443	96.5768	49.9396	51.1837	117.902	57.3533	74.7381	160.302	11.8791	66.2822	171.192	5.99355	99.1514	185.839	33.9358	76.8285	
41	0.341667	174.962	71.882	88.734	145.872	84.7971	61.6745	130.597	74.9226	35.0382	111.448	61.3364	18.0978	197.379	49.457	14.3036	198.472	45.6971	-13.2996	197.573	44.9308	-38.4905	182.746	14.8574	5.80586	176.428	8.15616	-20.7388	164.78	4.48308	-51.6679	142.287	14.6255	12.2427	120.087	36.0056	7.28054	116.364	50.6479	41.7401	126.682	5.3796	36.955	112.645	34.852	39.9123	123.148	45.8672	64.7823	174.269	3.91788	71.8508	176.489	5.31584	101.859	195.583	35.3173	83.2296	
42	0.35	162.507	68.3312	87.472	135.432	67.0401	57.0611	128.009	53.2073	27.5242	120.143	32.7283	8.88862	201.521	54.3136	14.7621	205.948	52.7385	-7.82069	208.284	50.3898	-34.4104	205.845	18.8626	12.2377	208.665	12.7392	-12.5042	205.246	6.18762	-45.6356	169.926	7.29641	13.2077	137.985	13.9842	4.60462	126.619	27.553	31.414	152.976	-11.3279	34.6463	127.128	5.72132	32.902	130.966	26.9584	60.5946	192.682	8.54908	75.2843	190.533	9.03124	105.504	196.851	44.7865	84.3599	
43	0.358333	138.026	57.3806	88.4297	122.404	39.3057	56.1632	124.392	25.4983	29.362	130.079	7.19861	11.6977	179.916	68.9821	20.2169	184.801	76.1896	-9.97598	188.919	74.6869	-32.0269	202.86	46.1261	17.6261	211.935	46.8042	-12.8497	216.208	39.6731	-41.515	186.8	14.5803	14.1187	153.792	1.62756	5.2695	140.62	0.178542	33.9169	180.789	-11.5359	32.3636	151.022	-9.86231	33.1641	141.188	4.80281	60.0068	200.451	27.8709	76.3444	198.934	26.9965	107.032	183.11	54.9847	90.0543	
44	0.366667	129.125	37.885	87.9152	119.273	15.248	59.0118	127.301	3.16968	32.3745	141.641	-11.444	13.3043	154.156	71.7472	17.0859	154.773	75.8806	-5.27772	163.419	76.8958	-32.3699	187.255	60.1062	15.3019	197.615	60.5357	-12.2563	203.905	58.5875	-41.6135	187.245	21.1088	13.1909	165.352	-4.01802	6.75763	153.773	-11.2894	35.3086	192.458	2.78936	35.0422	169.231	-16.2038	36.4116	152.408	-5.8103	59.568	195.826	44.2393	74.1978	191.885	39.3406	112.018	163.27	59.8372	91.8268	
45	0.375	122.396	24.4349	91.6303	118.471	-0.804394	59.927	126.562	-11.5045	32.9521	144.785	-23.238	13.3026	139.36	59.3307	22.4249	135.402	63.8376	-4.87916	140.467	67.3012	-33.2524	170.797	60.0932	16.6298	177.049	62.4392	-9.67711	188.385	59.943	-40.7926	183.306	27.7088	19.2218	172.913	-5.11646	7.00037	160.77	-19.8549	33.4491	198.519	7.24838	35.4811	181.433	-12.8334	33.2161	161.182	-21.1302	59.6183	182.144	48.45	78.1129	185.65	46.7426	114.715	147.211	56.9149	90.2017	
46	0.383333	115.721	17.6586	95.7619	113.522	-6.53158	68.436	117.039	-19.4833	38.3462	127.728	-30.6057	22.6555	128.003	48.0805	21.9423	130.447	50.1571	-5.05817	133.956	51.0518	-34.8256	164.031	52.6333	17.4629	168.626	54.7694	-12.2264	177.991	51.4262	-41.0873	180.567	28.3036	20.3106	176.302	-3.95461	3.33225	166.216	-26.0127	25.7526	201.454	9.41587	36.1112	187.659	-18.0172	31.9318	165.262	-25.8396	48.9731	181.775	45.9934	75.7733	180.852	48.606	110.583	145.437	51.5925	91.7507	
